<?xml version="1.0" encoding="UTF-8" standalone="no"?>
<!-- Created with Inkscape (http://www.inkscape.org/) -->

<svg
   xmlns:dc="http://purl.org/dc/elements/1.1/"
   xmlns:cc="http://creativecommons.org/ns#"
   xmlns:rdf="http://www.w3.org/1999/02/22-rdf-syntax-ns#"
   xmlns:svg="http://www.w3.org/2000/svg"
   xmlns="http://www.w3.org/2000/svg"
   xmlns:sodipodi="http://sodipodi.sourceforge.net/DTD/sodipodi-0.dtd"
   xmlns:inkscape="http://www.inkscape.org/namespaces/inkscape"
   width="540"
   height="540"
   viewBox="0 0 142.875 142.875"
   version="1.1"
   id="svg8"
   inkscape:version="0.92.3 (2405546, 2018-03-11)"
   sodipodi:docname="logo2.svg"
   inkscape:export-filename="C:\Users\polsk\Desktop\reszta\Strony\Nieskończone\Auto klinika\jpg\logo2.png"
   inkscape:export-xdpi="96"
   inkscape:export-ydpi="96">
  <defs
     id="defs2" />
  <sodipodi:namedview
     id="base"
     pagecolor="#ffffff"
     bordercolor="#666666"
     borderopacity="1.0"
     inkscape:pageopacity="0.0"
     inkscape:pageshadow="2"
     inkscape:zoom="1.4"
     inkscape:cx="244.3222"
     inkscape:cy="206.77317"
     inkscape:document-units="mm"
     inkscape:current-layer="layer1"
     showgrid="false"
     inkscape:window-width="1280"
     inkscape:window-height="961"
     inkscape:window-x="-8"
     inkscape:window-y="-8"
     inkscape:window-maximized="1"
     units="px" />
  <metadata
     id="metadata5">
    <rdf:RDF>
      <cc:Work
         rdf:about="">
        <dc:format>image/svg+xml</dc:format>
        <dc:type
           rdf:resource="http://purl.org/dc/dcmitype/StillImage" />
        <dc:title></dc:title>
      </cc:Work>
    </rdf:RDF>
  </metadata>
  <g
     inkscape:label="Layer 1"
     inkscape:groupmode="layer"
     id="layer1"
     transform="translate(0,-154.12498)">
    <ellipse
       style="fill:#000000;fill-opacity:1;stroke:#000000;stroke-width:6.53472137;stroke-miterlimit:4;stroke-dasharray:none;stroke-opacity:0"
       id="path826-5"
       cx="70.594757"
       cy="226.08035"
       rx="68.831596"
       ry="69.005653" />
    <ellipse
       style="fill:#4883e2;fill-opacity:1;stroke:#000000;stroke-width:6.46696806;stroke-miterlimit:4;stroke-dasharray:none;stroke-opacity:0"
       id="path826"
       cx="70.560089"
       cy="225.93542"
       rx="68.20401"
       ry="68.204018" />
    <ellipse
       style="fill:#000000;fill-opacity:1;stroke:#000000;stroke-width:6.05636787;stroke-miterlimit:4;stroke-dasharray:none;stroke-opacity:0"
       id="path826-5-3"
       cx="70.261826"
       cy="225.40105"
       rx="63.861794"
       ry="63.88541" />
    <circle
       style="fill:#c0c6d0;fill-opacity:1;stroke:#000000;stroke-width:5.98793411;stroke-miterlimit:4;stroke-dasharray:none;stroke-opacity:0"
       id="path826-3"
       cx="70.337349"
       cy="225.44218"
       r="63.151867" />
    <path
       style="fill:#4883e2;fill-opacity:1;stroke:#000000;stroke-width:0.66500002;stroke-linecap:butt;stroke-linejoin:miter;stroke-miterlimit:4;stroke-dasharray:none;stroke-opacity:1"
       d="m 22.713791,263.03368 c -0.76613,-3.20492 -1.213193,-6.40984 -0.850445,-9.61476 0.379302,-1.9727 0.791626,-3.81331 1.296254,-5.28471 1.220323,-1.90369 2.572975,-3.47551 4.944486,-6.08038 l 53.266887,-58.91487 c 3.37703,-3.24528 5.42762,-5.14938 7.69553,-6.7926 1.63131,-1.3095 5.2399,-3.31799 6.75501,-3.82898 0.85556,-0.34018 1.54456,-0.29173 2.2749,-0.33973 1.41481,-0.0596 2.727167,0.0124 3.921507,0.23624 l 0.75595,24.09598 1.56885,52.49297 c 0.0705,2.48472 0.39424,4.86654 0.76988,7.22728 0.4942,2.58954 1.30235,4.92792 2.10326,7.27209 0.65307,1.72419 1.57501,3.12574 2.53906,4.47676 -3.37241,-1.93065 -6.38487,-3.78931 -7.88445,-5.34539 -2.709397,-2.6323 -4.347827,-5.32409 -5.946737,-8.01808 -1.77779,-3.00222 -2.89876,-6.16864 -4.2095,-9.28762 -1.02408,-2.8136 -1.53806,-5.45717 -2.00452,-8.0849 -0.59088,-4.2523 -0.7758,-8.43694 -1.00226,-12.6285 l -22.51746,-0.73499 7.48355,-10.28988 15.16754,0.40091 c -0.4121,-8.94102 0.82195,-17.26474 2.40543,-25.45742 -0.0638,-0.83743 -0.39383,-1.19945 -1.33635,-0.46773 -7.4534,6.52749 -44.797581,49.97887 -67.196372,74.96831 z"
       id="path847"
       inkscape:connector-curvature="0"
       sodipodi:nodetypes="ccccccccccccccccccccccccc" />
  </g>
</svg>
