<?xml version="1.0" encoding="UTF-8" standalone="no"?>
<!-- Created with Inkscape (http://www.inkscape.org/) -->

<svg
   xmlns:dc="http://purl.org/dc/elements/1.1/"
   xmlns:cc="http://creativecommons.org/ns#"
   xmlns:rdf="http://www.w3.org/1999/02/22-rdf-syntax-ns#"
   xmlns:svg="http://www.w3.org/2000/svg"
   xmlns="http://www.w3.org/2000/svg"
   xmlns:sodipodi="http://sodipodi.sourceforge.net/DTD/sodipodi-0.dtd"
   xmlns:inkscape="http://www.inkscape.org/namespaces/inkscape"
   width="540"
   height="540"
   viewBox="0 0 142.875 142.875"
   version="1.1"
   id="svg8"
   inkscape:version="0.92.3 (2405546, 2018-03-11)"
   sodipodi:docname="logo.svg">
  <defs
     id="defs2" />
  <sodipodi:namedview
     id="base"
     pagecolor="#ffffff"
     bordercolor="#666666"
     borderopacity="1.0"
     inkscape:pageopacity="0.0"
     inkscape:pageshadow="2"
     inkscape:zoom="0.98994949"
     inkscape:cx="147.45663"
     inkscape:cy="322.74753"
     inkscape:document-units="mm"
     inkscape:current-layer="layer1"
     showgrid="false"
     inkscape:window-width="1280"
     inkscape:window-height="961"
     inkscape:window-x="-8"
     inkscape:window-y="-8"
     inkscape:window-maximized="1"
     units="px" />
  <metadata
     id="metadata5">
    <rdf:RDF>
      <cc:Work
         rdf:about="">
        <dc:format>image/svg+xml</dc:format>
        <dc:type
           rdf:resource="http://purl.org/dc/dcmitype/StillImage" />
        <dc:title></dc:title>
      </cc:Work>
    </rdf:RDF>
  </metadata>
  <g
     inkscape:label="Layer 1"
     inkscape:groupmode="layer"
     id="layer1"
     transform="translate(0,-154.12498)">
    <g
       id="g853"
       transform="translate(-35.814117,128.0221)"
       inkscape:export-xdpi="96"
       inkscape:export-ydpi="96">
      <g
         id="g845">
        <ellipse
           style="fill:#4883e2;fill-opacity:1;stroke:#000000;stroke-width:6.46696806;stroke-miterlimit:4;stroke-dasharray:none;stroke-opacity:0"
           id="path826"
           cx="106.37421"
           cy="97.91333"
           rx="68.20401"
           ry="68.204018" />
        <circle
           style="fill:#c0c6d0;fill-opacity:1;stroke:#000000;stroke-width:5.98793411;stroke-miterlimit:4;stroke-dasharray:none;stroke-opacity:0"
           id="path826-3"
           cx="106.15147"
           cy="97.420082"
           r="63.151867" />
      </g>
      <path
         sodipodi:nodetypes="ccccccccccccccccccccccccc"
         inkscape:connector-curvature="0"
         id="path847"
         d="m 58.527908,135.01158 c -0.76613,-3.20492 -1.213193,-6.40984 -0.850445,-9.61476 0.379302,-1.9727 0.791626,-3.81331 1.296254,-5.28471 1.220323,-1.90369 2.572975,-3.47551 4.944486,-6.08038 L 117.18509,55.116862 c 3.37703,-3.245285 5.42762,-5.149383 7.69553,-6.792603 1.63131,-1.309494 5.2399,-3.317986 6.75501,-3.828974 0.85556,-0.340185 1.54456,-0.291733 2.2749,-0.339733 1.41481,-0.05964 2.72717,0.01243 3.92151,0.23624 l 0.75595,24.09598 1.56885,52.492968 c 0.0705,2.48472 0.39424,4.86654 0.76988,7.22728 0.4942,2.58954 1.30235,4.92792 2.10326,7.27209 0.65307,1.72419 1.57501,3.12574 2.53906,4.47676 -3.37241,-1.93065 -6.38487,-3.78931 -7.88445,-5.34539 -2.7094,-2.6323 -4.34783,-5.32409 -5.94674,-8.01808 -1.77779,-3.00222 -2.89876,-6.16864 -4.2095,-9.28762 -1.02408,-2.8136 -1.53806,-5.45717 -2.00452,-8.0849 -0.59088,-4.2523 -0.7758,-8.43694 -1.00226,-12.628498 l -22.51746,-0.73499 7.48355,-10.28988 15.16754,0.40091 c -0.4121,-8.941024 0.82195,-17.26474 2.40543,-25.45742 -0.0638,-0.837436 -0.39383,-1.199447 -1.33635,-0.46773 -7.4534,6.527489 -44.797581,49.978868 -67.196372,74.968308 z"
         style="fill:#4883e2;fill-opacity:1;stroke:#000000;stroke-width:0.66500002;stroke-linecap:butt;stroke-linejoin:miter;stroke-miterlimit:4;stroke-dasharray:none;stroke-opacity:1" />
    </g>
  </g>
</svg>
